<svg width="20" height="20" viewBox="0 0 20 20" fill="none" xmlns="http://www.w3.org/2000/svg">
<path d="M7.975 15.6834C7.81666 15.6834 7.65833 15.6251 7.53333 15.5001L2.475 10.4418C2.23333 10.2001 2.23333 9.8001 2.475 9.55843L7.53333 4.5001C7.775 4.25843 8.175 4.25843 8.41666 4.5001C8.65833 4.74176 8.65833 5.14176 8.41666 5.38343L3.8 10.0001L8.41666 14.6168C8.65833 14.8584 8.65833 15.2584 8.41666 15.5001C8.3 15.6251 8.13333 15.6834 7.975 15.6834Z" fill="white"/>
<path d="M17.0833 10.625H3.05833C2.71667 10.625 2.43333 10.3417 2.43333 10C2.43333 9.65833 2.71667 9.375 3.05833 9.375H17.0833C17.425 9.375 17.7083 9.65833 17.7083 10C17.7083 10.3417 17.425 10.625 17.0833 10.625Z" fill="white"/>
</svg>
