<svg width="28" height="29" viewBox="0 0 28 29" fill="none" xmlns="http://www.w3.org/2000/svg">
<path d="M11.13 19.9483C10.6517 19.9483 10.255 19.5516 10.255 19.0733V15.1183L10.0334 15.375C9.7067 15.7366 9.15837 15.76 8.7967 15.445C8.43503 15.1183 8.4117 14.57 8.7267 14.2083L10.4767 12.26C10.7217 11.9916 11.1067 11.8983 11.445 12.0266C11.7834 12.155 12.005 12.4816 12.005 12.8433V19.085C12.005 19.5633 11.62 19.9483 11.13 19.9483Z" fill="white"/>
<path d="M14 4.56018C13.9067 4.56018 13.8133 4.57185 13.72 4.57185L14.6767 3.38185C14.98 3.00852 14.9217 2.44852 14.5367 2.15685C14.1633 1.85352 13.615 1.91185 13.3117 2.29685L11.0133 5.16685C11.0017 5.17852 11.0017 5.19018 10.99 5.21352C10.955 5.26018 10.9317 5.31852 10.9083 5.36518C10.885 5.42352 10.8617 5.47018 10.85 5.51685C10.8383 5.57518 10.8383 5.62185 10.8383 5.68018C10.8383 5.73852 10.8383 5.79685 10.8383 5.85518C10.8383 5.87852 10.8383 5.89018 10.8383 5.91352C10.85 5.94852 10.8733 5.97185 10.885 6.01852C10.9083 6.07685 10.92 6.12352 10.955 6.17018C10.99 6.21685 11.025 6.26352 11.0717 6.31018C11.095 6.33352 11.1183 6.36852 11.1417 6.39185C11.1533 6.40352 11.1767 6.40352 11.1883 6.41518C11.2233 6.43852 11.2583 6.46185 11.305 6.47352C11.3633 6.50852 11.4217 6.53185 11.48 6.54352C11.5267 6.56685 11.5617 6.56685 11.6083 6.56685C11.6433 6.56685 11.6667 6.57852 11.7017 6.57852C11.725 6.57852 11.76 6.56685 11.7833 6.55518C11.8183 6.55518 11.8533 6.55518 11.9 6.55518C12.6467 6.38018 13.3467 6.29852 14.0117 6.29852C19.25 6.29852 23.5083 10.5568 23.5083 15.7952C23.5083 21.0335 19.25 25.2918 14.0117 25.2918C8.77332 25.2918 4.51498 21.0335 4.51498 15.7952C4.51498 13.7652 5.17998 11.8052 6.43998 10.1252C6.73165 9.74018 6.64998 9.19185 6.26498 8.90018C5.87998 8.60852 5.33165 8.69018 5.03998 9.07518C3.54665 11.0585 2.76498 13.3802 2.76498 15.7952C2.76498 21.9902 7.80498 27.0418 14.0117 27.0418C20.2183 27.0418 25.2583 22.0019 25.2583 15.7952C25.2583 9.58852 20.195 4.56018 14 4.56018Z" fill="white"/>
<path d="M16.3333 19.9482C14.56 19.9482 13.125 18.5132 13.125 16.7399V15.1649C13.125 13.3915 14.56 11.9565 16.3333 11.9565C18.1067 11.9565 19.5417 13.3915 19.5417 15.1649V16.7399C19.5417 18.5132 18.1067 19.9482 16.3333 19.9482ZM16.3333 13.7182C15.5283 13.7182 14.875 14.3715 14.875 15.1765V16.7515C14.875 17.5565 15.5283 18.2099 16.3333 18.2099C17.1383 18.2099 17.7917 17.5565 17.7917 16.7515V15.1765C17.7917 14.3715 17.1383 13.7182 16.3333 13.7182Z" fill="white"/>
</svg>
