<svg width="18" height="14" viewBox="0 0 18 14" fill="none" xmlns="http://www.w3.org/2000/svg">
<path d="M1.5 9.58325C2.30074 9.74656 3.03578 10.1417 3.61365 10.7196C4.19152 11.2975 4.58669 12.0325 4.75 12.8333M1.5 12.8332H1.50833M1.5 6.20801C3.19232 6.39623 4.77023 7.15471 5.97426 8.35875C7.17829 9.56278 7.93678 11.1407 8.125 12.833M11.5 12.8332H13.8333C14.7668 12.8332 15.2335 12.8332 15.59 12.6515C15.9036 12.4917 16.1586 12.2368 16.3183 11.9232C16.5 11.5666 16.5 11.0999 16.5 10.1665V3.83317C16.5 2.89975 16.5 2.43304 16.3183 2.07652C16.1586 1.76292 15.9036 1.50795 15.59 1.34816C15.2335 1.1665 14.7668 1.1665 13.8333 1.1665H3.16667C2.24619 1.1665 1.5 1.9127 1.5 2.83317" stroke="white" stroke-width="2" stroke-linecap="round" stroke-linejoin="round"/>
</svg>
