<svg width="28" height="29" viewBox="0 0 28 29" fill="none" xmlns="http://www.w3.org/2000/svg">
<path d="M22.9712 9.07487C22.6795 8.68987 22.1312 8.6082 21.7462 8.89987C21.3612 9.19153 21.2795 9.73987 21.5712 10.1249C22.8312 11.8049 23.4962 13.7649 23.4962 15.7949C23.4962 21.0332 19.2379 25.2915 13.9995 25.2915C8.76121 25.2915 4.50288 21.0332 4.50288 15.7949C4.50288 10.5565 8.76121 6.30987 13.9995 6.30987C14.6762 6.30987 15.3645 6.39153 16.1112 6.56653C16.1462 6.5782 16.1812 6.56653 16.2279 6.56653C16.2512 6.56653 16.2862 6.58987 16.3095 6.58987C16.3445 6.58987 16.3679 6.5782 16.4029 6.5782C16.4495 6.5782 16.4845 6.56653 16.5195 6.55487C16.5779 6.5432 16.6362 6.51987 16.6945 6.48487C16.7295 6.46153 16.7762 6.44987 16.8112 6.42653C16.8229 6.41487 16.8462 6.41487 16.8579 6.4032C16.8929 6.37987 16.9045 6.34487 16.9279 6.32153C16.9745 6.27487 17.0095 6.23987 17.0445 6.18153C17.0795 6.13487 17.0912 6.07653 17.1145 6.02987C17.1262 5.99487 17.1495 5.95987 17.1612 5.92487C17.1612 5.90153 17.1612 5.88987 17.1612 5.86653C17.1729 5.8082 17.1729 5.74987 17.1612 5.69153C17.1612 5.6332 17.1612 5.58653 17.1495 5.5282C17.1379 5.48153 17.1145 5.43487 17.0912 5.37653C17.0679 5.3182 17.0445 5.25987 17.0095 5.2132C16.9979 5.18987 16.9979 5.1782 16.9862 5.16653L14.6762 2.28487C14.3729 1.91153 13.8245 1.8532 13.4512 2.14487C13.0779 2.4482 13.0195 2.99653 13.3112 3.36987L14.2679 4.55987C14.1745 4.55987 14.0812 4.5482 13.9879 4.5482C7.79288 4.5482 2.74121 9.5882 2.74121 15.7949C2.74121 22.0015 7.78121 27.0415 13.9879 27.0415C20.1945 27.0415 25.2345 22.0015 25.2345 15.7949C25.2462 13.3799 24.4529 11.0582 22.9712 9.07487Z" fill="white"/>
<path d="M11.1295 19.9483C10.6511 19.9483 10.2545 19.5516 10.2545 19.0733V15.1183L10.0328 15.375C9.70612 15.7366 9.15779 15.76 8.79612 15.445C8.43445 15.1183 8.41112 14.57 8.72612 14.2083L10.4761 12.26C10.7211 11.9916 11.1061 11.8983 11.4445 12.0266C11.7828 12.155 12.0045 12.4816 12.0045 12.8433V19.085C12.0045 19.5633 11.6195 19.9483 11.1295 19.9483Z" fill="white"/>
<path d="M16.3333 19.9482C14.56 19.9482 13.125 18.5132 13.125 16.7399V15.1649C13.125 13.3915 14.56 11.9565 16.3333 11.9565C18.1067 11.9565 19.5417 13.3915 19.5417 15.1649V16.7399C19.5417 18.5132 18.1067 19.9482 16.3333 19.9482ZM16.3333 13.7182C15.5283 13.7182 14.875 14.3715 14.875 15.1765V16.7515C14.875 17.5565 15.5283 18.2099 16.3333 18.2099C17.1383 18.2099 17.7917 17.5565 17.7917 16.7515V15.1765C17.7917 14.3715 17.1383 13.7182 16.3333 13.7182Z" fill="white"/>
</svg>
