<svg width="28" height="29" viewBox="0 0 28 29" fill="none" xmlns="http://www.w3.org/2000/svg">
<path d="M16.6666 4.12955C16.6666 3.41362 17.2636 2.83325 18 2.83325H22C22.7363 2.83325 23.3333 3.41362 23.3333 4.12955V24.8703C23.3333 25.5862 22.7363 26.1666 22 26.1666H18C17.2636 26.1666 16.6666 25.5862 16.6666 24.8703V4.12955Z" fill="white"/>
<path d="M4.66663 4.12955C4.66663 3.41362 5.26358 2.83325 5.99996 2.83325H9.99996C10.7363 2.83325 11.3333 3.41362 11.3333 4.12955V24.8703C11.3333 25.5862 10.7363 26.1666 9.99996 26.1666H5.99996C5.26358 26.1666 4.66663 25.5862 4.66663 24.8703V4.12955Z" fill="white"/>
</svg>
