<svg width="21" height="20" viewBox="0 0 21 20" fill="none" xmlns="http://www.w3.org/2000/svg">
<path d="M3 7.50064H8.41665M18 7.50064H8.41665M8.41665 7.50064L12.5833 3.33398M12.5833 3.33398H15.3333C16.2056 3.33398 16.6703 3.33398 17.0184 3.48224M12.5833 3.33398H5.66666C4.73324 3.33398 4.26653 3.33398 3.91001 3.51564C3.59641 3.67543 3.34144 3.93039 3.18166 4.244C3 4.60052 3 5.06722 3 6.00064V14.0006C3 14.934 3 15.4007 3.18166 15.7573C3.34144 16.0709 3.59641 16.3258 3.91001 16.4856C4.26653 16.6673 4.73324 16.6673 5.66666 16.6673H15.3333C16.2667 16.6673 16.7334 16.6673 17.0899 16.4856C17.4035 16.3258 17.6585 16.0709 17.8183 15.7573C18 15.4007 18 14.934 18 14.0006V6.00064C18 5.06722 18 4.60052 17.8183 4.244C17.6585 3.93039 17.4035 3.67543 17.0899 3.51564C17.0666 3.50374 17.0428 3.49263 17.0184 3.48224M7.99998 3.33398L3.83333 7.50064M13 7.50076L17.0184 3.48224" stroke="white" stroke-width="1.2"/>
<path d="M12.5 11.6242L8.875 13.7992V9.44922L12.5 11.6242Z" stroke="white" stroke-width="0.994286" stroke-linecap="round" stroke-linejoin="round"/>
</svg>
