<svg width="20" height="20" viewBox="0 0 20 20" fill="none" xmlns="http://www.w3.org/2000/svg">
<path d="M14.1667 18.9583H5.83335C2.79169 18.9583 1.04169 17.2083 1.04169 14.1666V9.99992C1.04169 6.95825 2.79169 5.20825 5.83335 5.20825H14.1667C17.2084 5.20825 18.9584 6.95825 18.9584 9.99992V14.1666C18.9584 17.2083 17.2084 18.9583 14.1667 18.9583ZM5.83335 6.45825C3.45002 6.45825 2.29169 7.61659 2.29169 9.99992V14.1666C2.29169 16.5499 3.45002 17.7083 5.83335 17.7083H14.1667C16.55 17.7083 17.7084 16.5499 17.7084 14.1666V9.99992C17.7084 7.61659 16.55 6.45825 14.1667 6.45825H5.83335Z" fill="white"/>
<path d="M15 4.375H5C4.65833 4.375 4.375 4.09167 4.375 3.75C4.375 3.40833 4.65833 3.125 5 3.125H15C15.3417 3.125 15.625 3.40833 15.625 3.75C15.625 4.09167 15.3417 4.375 15 4.375Z" fill="white"/>
<path d="M12.5 2.29175H7.5C7.15833 2.29175 6.875 2.00841 6.875 1.66675C6.875 1.32508 7.15833 1.04175 7.5 1.04175H12.5C12.8417 1.04175 13.125 1.32508 13.125 1.66675C13.125 2.00841 12.8417 2.29175 12.5 2.29175Z" fill="white"/>
<path d="M8.54169 15.1157C8.21669 15.1157 7.90834 15.0407 7.64167 14.8823C7.02501 14.524 6.66669 13.799 6.66669 12.8824V10.5657C6.66669 9.64902 7.02501 8.92405 7.64167 8.56572C8.26667 8.20739 9.07502 8.26572 9.86668 8.72405L11.8667 9.88235C12.6583 10.3407 13.1083 11.0157 13.1083 11.724C13.1083 12.4324 12.6583 13.1157 11.8667 13.5657L9.86668 14.724C9.41668 14.9823 8.96669 15.1157 8.54169 15.1157ZM8.55003 9.58236C8.4417 9.58236 8.35001 9.60738 8.26667 9.64904C8.04167 9.78238 7.91669 10.1157 7.91669 10.5657V12.8824C7.91669 13.3324 8.04167 13.674 8.26667 13.799C8.49167 13.924 8.84168 13.874 9.24168 13.6407L11.2417 12.4823C11.6333 12.2573 11.8583 11.974 11.8583 11.7157C11.8583 11.4574 11.6333 11.1824 11.2417 10.949L9.24168 9.79069C8.98335 9.65736 8.75003 9.58236 8.55003 9.58236Z" fill="white"/>
</svg>
