<svg width="20" height="20" viewBox="0 0 20 20" fill="none" xmlns="http://www.w3.org/2000/svg">
<path d="M5.25811 16.7417C4.78311 16.7417 4.31645 16.6167 3.88311 16.3667C3.01645 15.8667 2.50812 14.9833 2.50812 13.9833V6.00832C2.50812 5.01665 3.02478 4.125 3.88311 3.625C4.74978 3.125 5.77477 3.125 6.6331 3.625L13.5414 7.60833C14.3998 8.10833 14.9164 8.99999 14.9164 9.99165C14.9164 10.9833 14.3998 11.875 13.5414 12.375L6.6331 16.3583C6.19977 16.6167 5.73311 16.7417 5.25811 16.7417ZM5.25811 4.50833C4.99977 4.50833 4.74145 4.57499 4.50811 4.70832C4.04145 4.98332 3.75812 5.46665 3.75812 6.00832V13.9833C3.75812 14.525 4.04145 15.0083 4.50811 15.2833C4.97478 15.55 5.54144 15.5583 6.0081 15.2833L12.9164 11.3C13.3831 11.025 13.6664 10.5417 13.6664 9.99999C13.6664 9.45833 13.3831 8.975 12.9164 8.7L6.0081 4.71666C5.77477 4.58333 5.51644 4.50833 5.25811 4.50833Z" fill="white"/>
<path d="M16.8669 15.7751C16.5252 15.7751 16.2419 15.4918 16.2419 15.1501V4.8501C16.2419 4.50843 16.5252 4.2251 16.8669 4.2251C17.2085 4.2251 17.4919 4.50843 17.4919 4.8501V15.1501C17.4919 15.4918 17.2169 15.7751 16.8669 15.7751Z" fill="white"/>
</svg>
