<svg width="20" height="25" viewBox="0 0 20 25" fill="none" xmlns="http://www.w3.org/2000/svg">
<path d="M12.6666 2.12955C12.6666 1.41362 13.2636 0.833252 14 0.833252H18C18.7363 0.833252 19.3333 1.41362 19.3333 2.12955V22.8703C19.3333 23.5862 18.7363 24.1666 18 24.1666H14C13.2636 24.1666 12.6666 23.5862 12.6666 22.8703V2.12955Z" fill="white"/>
<path d="M0.666626 2.12955C0.666626 1.41362 1.26358 0.833252 1.99996 0.833252H5.99996C6.73634 0.833252 7.33329 1.41362 7.33329 2.12955V22.8703C7.33329 23.5862 6.73634 24.1666 5.99996 24.1666H1.99996C1.26358 24.1666 0.666626 23.5862 0.666626 22.8703V2.12955Z" fill="white"/>
</svg>
