<svg width="16" height="18" viewBox="0 0 16 18" fill="none" xmlns="http://www.w3.org/2000/svg">
<path d="M11.8818 6.73918C13.0816 7.48904 13.6815 7.86397 13.8872 8.344C14.0669 8.76323 14.0669 9.23779 13.8872 9.65702C13.6815 10.137 13.0816 10.512 11.8818 11.2618L6.24662 14.7838C4.915 15.6161 4.24919 16.0322 3.69974 15.9881C3.2208 15.9496 2.78178 15.7062 2.49529 15.3205C2.16663 14.878 2.16663 14.0928 2.16663 12.5225V5.4785C2.16663 3.90819 2.16663 3.12303 2.49529 2.68051C2.78178 2.29478 3.2208 2.05145 3.69974 2.01295C4.24919 1.96878 4.915 2.38491 6.24662 3.21717L11.8818 6.73918Z" stroke="white" stroke-width="2.5" stroke-linejoin="round"/>
</svg>
