<svg width="18" height="18" viewBox="0 0 18 18" fill="none" xmlns="http://www.w3.org/2000/svg">
<path d="M9.00002 12.1251C7.27502 12.1251 5.87502 10.7251 5.87502 9.00008C5.87502 7.27508 7.27502 5.87508 9.00002 5.87508C10.725 5.87508 12.125 7.27508 12.125 9.00008C12.125 10.7251 10.725 12.1251 9.00002 12.1251ZM9.00002 7.12508C7.96669 7.12508 7.12502 7.96674 7.12502 9.00008C7.12502 10.0334 7.96669 10.8751 9.00002 10.8751C10.0334 10.8751 10.875 10.0334 10.875 9.00008C10.875 7.96674 10.0334 7.12508 9.00002 7.12508Z" fill="white"/>
<path d="M11.675 17.4917C11.5 17.4917 11.325 17.4667 11.15 17.4251C10.6334 17.2834 10.2 16.9584 9.92502 16.5001L9.82502 16.3334C9.33335 15.4834 8.65835 15.4834 8.16669 16.3334L8.07502 16.4917C7.80002 16.9584 7.36669 17.2917 6.85002 17.4251C6.32502 17.5667 5.78335 17.4917 5.32502 17.2167L3.89169 16.3917C3.38335 16.1001 3.01669 15.6251 2.85835 15.0501C2.70835 14.4751 2.78335 13.8834 3.07502 13.3751C3.31669 12.9501 3.38335 12.5667 3.24169 12.3251C3.10002 12.0834 2.74169 11.9417 2.25002 11.9417C1.03335 11.9417 0.041687 10.9501 0.041687 9.73341V8.26674C0.041687 7.05008 1.03335 6.05841 2.25002 6.05841C2.74169 6.05841 3.10002 5.91674 3.24169 5.67508C3.38335 5.43341 3.32502 5.05008 3.07502 4.62508C2.78335 4.11674 2.70835 3.51674 2.85835 2.95008C3.00835 2.37508 3.37502 1.90008 3.89169 1.60841L5.33335 0.783409C6.27502 0.225076 7.51669 0.550076 8.08335 1.50841L8.18335 1.67508C8.67502 2.52508 9.35002 2.52508 9.84169 1.67508L9.93335 1.51674C10.5 0.550076 11.7417 0.225076 12.6917 0.791743L14.125 1.61674C14.6334 1.90841 15 2.38341 15.1584 2.95841C15.3084 3.53341 15.2334 4.12508 14.9417 4.63341C14.7 5.05841 14.6334 5.44174 14.775 5.68341C14.9167 5.92508 15.275 6.06674 15.7667 6.06674C16.9834 6.06674 17.975 7.05841 17.975 8.27508V9.74174C17.975 10.9584 16.9834 11.9501 15.7667 11.9501C15.275 11.9501 14.9167 12.0917 14.775 12.3334C14.6334 12.5751 14.6917 12.9584 14.9417 13.3834C15.2334 13.8917 15.3167 14.4917 15.1584 15.0584C15.0084 15.6334 14.6417 16.1084 14.125 16.4001L12.6834 17.2251C12.3667 17.4001 12.025 17.4917 11.675 17.4917ZM9.00002 14.4084C9.74169 14.4084 10.4334 14.8751 10.9084 15.7001L11 15.8584C11.1 16.0334 11.2667 16.1584 11.4667 16.2084C11.6667 16.2584 11.8667 16.2334 12.0334 16.1334L13.475 15.3001C13.6917 15.1751 13.8584 14.9667 13.925 14.7167C13.9917 14.4667 13.9584 14.2084 13.8334 13.9917C13.3584 13.1751 13.3 12.3334 13.6667 11.6917C14.0334 11.0501 14.7917 10.6834 15.7417 10.6834C16.275 10.6834 16.7 10.2584 16.7 9.72508V8.25841C16.7 7.73341 16.275 7.30008 15.7417 7.30008C14.7917 7.30008 14.0334 6.93341 13.6667 6.29174C13.3 5.65008 13.3584 4.80841 13.8334 3.99174C13.9584 3.77508 13.9917 3.51674 13.925 3.26674C13.8584 3.01674 13.7 2.81674 13.4834 2.68341L12.0417 1.85841C11.6834 1.64174 11.2084 1.76674 10.9917 2.13341L10.9 2.29174C10.425 3.11674 9.73335 3.58341 8.99169 3.58341C8.25002 3.58341 7.55835 3.11674 7.08335 2.29174L6.99169 2.12508C6.78335 1.77508 6.31669 1.65008 5.95835 1.85841L4.51669 2.69174C4.30002 2.81674 4.13335 3.02508 4.06669 3.27508C4.00002 3.52508 4.03335 3.78341 4.15835 4.00008C4.63335 4.81674 4.69169 5.65841 4.32502 6.30008C3.95835 6.94174 3.20002 7.30841 2.25002 7.30841C1.71669 7.30841 1.29169 7.73341 1.29169 8.26674V9.73341C1.29169 10.2584 1.71669 10.6917 2.25002 10.6917C3.20002 10.6917 3.95835 11.0584 4.32502 11.7001C4.69169 12.3417 4.63335 13.1834 4.15835 14.0001C4.03335 14.2167 4.00002 14.4751 4.06669 14.7251C4.13335 14.9751 4.29169 15.1751 4.50835 15.3084L5.95002 16.1334C6.12502 16.2417 6.33335 16.2667 6.52502 16.2167C6.72502 16.1667 6.89169 16.0334 7.00002 15.8584L7.09169 15.7001C7.56669 14.8834 8.25835 14.4084 9.00002 14.4084Z" fill="white"/>
</svg>
