<svg width="17" height="17" viewBox="0 0 17 17" fill="none" xmlns="http://www.w3.org/2000/svg">
<path d="M13.6739 16.6667C14.7371 16.6667 15.729 16.1485 16.3135 15.2879C16.8977 14.4274 16.9961 13.34 16.5749 12.394C16.1538 11.4483 15.2699 10.7712 14.2229 10.5922C13.1756 10.4131 12.106 10.7564 11.3761 11.5055L8.0473 9.43257C8.2733 8.70694 8.2733 7.93256 8.0473 7.20688L11.3761 5.13391C12.0783 5.84499 13.0927 6.18214 14.0976 6.03851C15.1026 5.89489 15.9733 5.28838 16.4337 4.41116C16.8941 3.53394 16.8869 2.49504 16.4145 1.62379C15.942 0.752775 15.0629 0.157511 14.0562 0.0268913C13.0495 -0.103728 12.0397 0.246589 11.3473 0.966813C10.6551 1.68683 10.3659 2.68732 10.5719 3.65089L7.20847 5.7489C6.48482 4.95088 5.45621 4.47381 4.36072 4.428C3.26523 4.38239 2.19795 4.77191 1.40619 5.50669C0.614383 6.24147 0.166626 7.25745 0.166626 8.31965C0.166626 9.38184 0.614409 10.3978 1.40619 11.1326C2.198 11.8674 3.26523 12.2569 4.36072 12.2113C5.45621 12.1655 6.48482 11.6885 7.20847 10.8904L10.5776 12.9882L10.5778 12.9884C10.386 13.8897 10.623 14.8269 11.2235 15.5401C11.8239 16.2533 12.7239 16.6672 13.674 16.6666L13.6739 16.6667ZM13.6739 1.64222C14.0547 1.64222 14.42 1.78875 14.6893 2.04959C14.9587 2.31043 15.11 2.66443 15.11 3.03338C15.11 3.40232 14.9587 3.75613 14.6893 4.01697C14.42 4.27782 14.0548 4.42454 13.6739 4.42454C13.293 4.42454 12.9278 4.27782 12.6583 4.01697C12.389 3.75613 12.2378 3.40233 12.2378 3.03338C12.2378 2.66444 12.389 2.31043 12.6583 2.04959C12.9278 1.78875 13.293 1.64222 13.6739 1.64222ZM4.19558 10.5456C3.58611 10.5456 3.00172 10.311 2.57073 9.89369C2.13998 9.47623 1.89776 8.91009 1.89776 8.3197C1.89776 7.7293 2.13999 7.16321 2.57073 6.74571C3.00168 6.32844 3.58611 6.09381 4.19558 6.09381C4.80506 6.09381 5.38945 6.32845 5.82043 6.74571C6.25118 7.16317 6.4934 7.7293 6.4934 8.3197C6.4934 8.91009 6.25118 9.47619 5.82043 9.89369C5.38948 10.311 4.80506 10.5456 4.19558 10.5456ZM13.6739 12.2149C14.0547 12.2149 14.42 12.3616 14.6893 12.6224C14.9587 12.8833 15.11 13.2371 15.11 13.606C15.11 13.975 14.9587 14.329 14.6893 14.5898C14.42 14.8507 14.0548 14.9972 13.6739 14.9972C13.293 14.9972 12.9278 14.8507 12.6583 14.5898C12.389 14.329 12.2378 13.975 12.2378 13.606C12.2378 13.2371 12.389 12.8833 12.6583 12.6224C12.9278 12.3616 13.293 12.2149 13.6739 12.2149Z" fill="white"/>
</svg>
