<svg width="20" height="20" viewBox="0 0 20 20" fill="none" xmlns="http://www.w3.org/2000/svg">
<path d="M12.5 18.9582H7.50002C2.97502 18.9582 1.04169 17.0248 1.04169 12.4998V7.49984C1.04169 2.97484 2.97502 1.0415 7.50002 1.0415H12.5C17.025 1.0415 18.9584 2.97484 18.9584 7.49984V12.4998C18.9584 17.0248 17.025 18.9582 12.5 18.9582ZM7.50002 2.2915C3.65835 2.2915 2.29169 3.65817 2.29169 7.49984V12.4998C2.29169 16.3415 3.65835 17.7082 7.50002 17.7082H12.5C16.3417 17.7082 17.7084 16.3415 17.7084 12.4998V7.49984C17.7084 3.65817 16.3417 2.2915 12.5 2.2915H7.50002Z" fill="white"/>
<path d="M14.5834 14.8584H13.0417C12.7 14.8584 12.4167 14.5751 12.4167 14.2334C12.4167 13.8917 12.7 13.6084 13.0417 13.6084H14.5834C14.925 13.6084 15.2084 13.8917 15.2084 14.2334C15.2084 14.5751 14.925 14.8584 14.5834 14.8584Z" fill="white"/>
<path d="M10.8084 14.8584H5.41669C5.07502 14.8584 4.79169 14.5751 4.79169 14.2334C4.79169 13.8917 5.07502 13.6084 5.41669 13.6084H10.8084C11.15 13.6084 11.4334 13.8917 11.4334 14.2334C11.4334 14.5751 11.1584 14.8584 10.8084 14.8584Z" fill="white"/>
<path d="M14.5833 11.7251H9.97498C9.63331 11.7251 9.34998 11.4418 9.34998 11.1001C9.34998 10.7584 9.63331 10.4751 9.97498 10.4751H14.5833C14.925 10.4751 15.2083 10.7584 15.2083 11.1001C15.2083 11.4418 14.925 11.7251 14.5833 11.7251Z" fill="white"/>
<path d="M7.72502 11.7251H5.41669C5.07502 11.7251 4.79169 11.4418 4.79169 11.1001C4.79169 10.7584 5.07502 10.4751 5.41669 10.4751H7.72502C8.06669 10.4751 8.35002 10.7584 8.35002 11.1001C8.35002 11.4418 8.06669 11.7251 7.72502 11.7251Z" fill="white"/>
</svg>
