<svg width="57" height="19" viewBox="0 0 57 19" fill="none" xmlns="http://www.w3.org/2000/svg">
<path d="M0.386719 18L4.00781 0.867188H8.58984L5.76562 14.2617H11.3555L10.5586 18H0.386719ZM17.8209 18.2344C16.36 18.2344 15.1412 17.9609 14.1647 17.4141C13.1959 16.8672 12.4655 16.1016 11.9733 15.1172C11.4811 14.125 11.235 12.9648 11.235 11.6367C11.235 10.7461 11.317 9.85938 11.4811 8.97656C11.6452 8.09375 11.8952 7.24219 12.2311 6.42188C12.567 5.59375 12.9889 4.82812 13.4967 4.125C14.0045 3.42188 14.6022 2.80859 15.2897 2.28516C15.9772 1.75391 16.7545 1.33984 17.6217 1.04297C18.4967 0.746094 19.4655 0.597656 20.528 0.597656C22.6373 0.597656 24.235 1.19922 25.3209 2.40234C26.4147 3.60547 26.9616 5.20312 26.9616 7.19531C26.9616 8.08594 26.8795 8.97656 26.7155 9.86719C26.5592 10.75 26.317 11.6055 25.9889 12.4336C25.6686 13.2539 25.2584 14.0156 24.7584 14.7188C24.2584 15.4219 23.6686 16.0391 22.9889 16.5703C22.317 17.0938 21.5514 17.5039 20.692 17.8008C19.8327 18.0898 18.8756 18.2344 17.8209 18.2344ZM18.2194 14.4492C18.6022 14.4492 18.9694 14.3633 19.3209 14.1914C19.6725 14.0195 20.0006 13.7773 20.3053 13.4648C20.6178 13.1445 20.8952 12.7656 21.1373 12.3281C21.3873 11.8828 21.6022 11.3945 21.7819 10.8633C21.9616 10.3242 22.0983 9.75 22.192 9.14062C22.2858 8.53125 22.3327 7.89844 22.3327 7.24219C22.3327 6.35938 22.1452 5.66406 21.7702 5.15625C21.3952 4.64844 20.8522 4.39453 20.1412 4.39453C19.7116 4.39453 19.3092 4.49219 18.9342 4.6875C18.5592 4.88281 18.2116 5.15234 17.8912 5.49609C17.5787 5.83984 17.2975 6.24219 17.0475 6.70312C16.7975 7.16406 16.5827 7.66406 16.403 8.20312C16.2311 8.74219 16.0983 9.30078 16.0045 9.87891C15.9186 10.457 15.8756 11.0352 15.8756 11.6133C15.8756 12.2305 15.9616 12.75 16.1334 13.1719C16.3131 13.5938 16.5748 13.9141 16.9186 14.1328C17.2702 14.3438 17.7037 14.4492 18.2194 14.4492ZM32.7239 18.2344C30.7864 18.2344 29.2278 17.6641 28.0481 16.5234C26.8762 15.375 26.2903 13.668 26.2903 11.4023C26.2903 10.3008 26.4192 9.22656 26.677 8.17969C26.9427 7.125 27.3372 6.14062 27.8606 5.22656C28.3919 4.3125 29.0559 3.50781 29.8528 2.8125C30.6497 2.11719 31.5872 1.57422 32.6653 1.18359C33.7434 0.792969 34.9661 0.597656 36.3333 0.597656C37.3255 0.597656 38.2747 0.703125 39.1809 0.914062C40.0872 1.125 40.888 1.4375 41.5833 1.85156L39.8606 5.47266C39.3684 5.18359 38.8177 4.9375 38.2083 4.73438C37.6067 4.52344 36.9622 4.41797 36.2747 4.41797C35.2747 4.41797 34.4309 4.64844 33.7434 5.10938C33.0637 5.57031 32.5169 6.16016 32.1028 6.87891C31.6887 7.58984 31.388 8.34375 31.2005 9.14062C31.0208 9.92969 30.9309 10.6602 30.9309 11.332C30.9309 12.0508 31.0247 12.6406 31.2122 13.1016C31.3997 13.5547 31.6731 13.8906 32.0325 14.1094C32.3997 14.3203 32.8489 14.4258 33.3802 14.4258C33.6927 14.4258 33.9505 14.4141 34.1536 14.3906C34.3645 14.3594 34.6262 14.3164 34.9387 14.2617L35.5364 11.543H32.8528L33.638 7.96875H40.7864L38.8294 17.2852C38.0091 17.5508 37.1067 17.7773 36.1223 17.9648C35.138 18.1445 34.0052 18.2344 32.7239 18.2344ZM46.9941 18.2344C45.5331 18.2344 44.3144 17.9609 43.3378 17.4141C42.3691 16.8672 41.6386 16.1016 41.1464 15.1172C40.6542 14.125 40.4081 12.9648 40.4081 11.6367C40.4081 10.7461 40.4902 9.85938 40.6542 8.97656C40.8183 8.09375 41.0683 7.24219 41.4042 6.42188C41.7402 5.59375 42.162 4.82812 42.6698 4.125C43.1777 3.42188 43.7753 2.80859 44.4628 2.28516C45.1503 1.75391 45.9277 1.33984 46.7948 1.04297C47.6698 0.746094 48.6386 0.597656 49.7011 0.597656C51.8105 0.597656 53.4081 1.19922 54.4941 2.40234C55.5878 3.60547 56.1347 5.20312 56.1347 7.19531C56.1347 8.08594 56.0527 8.97656 55.8886 9.86719C55.7323 10.75 55.4902 11.6055 55.162 12.4336C54.8417 13.2539 54.4316 14.0156 53.9316 14.7188C53.4316 15.4219 52.8417 16.0391 52.162 16.5703C51.4902 17.0938 50.7245 17.5039 49.8652 17.8008C49.0058 18.0898 48.0487 18.2344 46.9941 18.2344ZM47.3925 14.4492C47.7753 14.4492 48.1425 14.3633 48.4941 14.1914C48.8456 14.0195 49.1737 13.7773 49.4784 13.4648C49.7909 13.1445 50.0683 12.7656 50.3105 12.3281C50.5605 11.8828 50.7753 11.3945 50.955 10.8633C51.1347 10.3242 51.2714 9.75 51.3652 9.14062C51.4589 8.53125 51.5058 7.89844 51.5058 7.24219C51.5058 6.35938 51.3183 5.66406 50.9433 5.15625C50.5683 4.64844 50.0253 4.39453 49.3144 4.39453C48.8847 4.39453 48.4823 4.49219 48.1073 4.6875C47.7323 4.88281 47.3847 5.15234 47.0644 5.49609C46.7519 5.83984 46.4706 6.24219 46.2206 6.70312C45.9706 7.16406 45.7558 7.66406 45.5761 8.20312C45.4042 8.74219 45.2714 9.30078 45.1777 9.87891C45.0917 10.457 45.0487 11.0352 45.0487 11.6133C45.0487 12.2305 45.1347 12.75 45.3066 13.1719C45.4862 13.5938 45.748 13.9141 46.0917 14.1328C46.4433 14.3438 46.8769 14.4492 47.3925 14.4492Z" fill="#DAD7CD"/>
</svg>
